<svg width="132" height="50" viewBox="0 0 132 50" fill="none" xmlns="http://www.w3.org/2000/svg">
<rect x="0.717041" y="0.5" width="130.306" height="48.0587" rx="8.5" stroke="white"/>
<path d="M30.856 25.2428C30.8815 23.2546 31.9451 21.3733 33.6324 20.3319C32.568 18.8058 30.7851 17.8381 28.9302 17.7799C26.9518 17.5714 25.0338 18.9683 24.0256 18.9683C22.9979 18.9683 21.4457 17.8006 19.7742 17.8351C17.5955 17.9058 15.5644 19.1493 14.5044 21.0615C12.2258 25.0219 13.9254 30.8423 16.1081 34.0436C17.2001 35.6112 18.4764 37.3622 20.1464 37.3001C21.7806 37.2321 22.3909 36.254 24.3635 36.254C26.3178 36.254 26.8904 37.3001 28.5943 37.2606C30.3479 37.232 31.4527 35.6861 32.5064 34.1037C33.291 32.9867 33.8948 31.7522 34.2953 30.446C32.2346 29.571 30.8584 27.489 30.856 25.2428Z" fill="white"/>
<path d="M27.6377 15.6746C28.5938 14.5223 29.0648 13.0413 28.9507 11.546C27.49 11.7 26.1407 12.4009 25.1717 13.5089C24.2241 14.5915 23.731 16.0465 23.8242 17.4846C25.2855 17.4997 26.722 16.8179 27.6377 15.6746Z" fill="white"/>
<path d="M89.1426 23.1893V25.5986H87.6383V27.1786H89.1426V32.5472C89.1426 34.3803 89.9687 35.1136 92.0469 35.1136C92.4121 35.1136 92.7599 35.0699 93.0642 35.0176V33.455C92.8034 33.4812 92.6382 33.4987 92.3512 33.4987C91.4208 33.4987 91.0121 33.0622 91.0121 32.0671V27.1786H93.0642V25.5986H91.0121V23.1893H89.1426Z" fill="white"/>
<path d="M98.3583 35.2445C101.123 35.2445 102.819 33.3852 102.819 30.3037C102.819 27.2397 101.115 25.3717 98.3583 25.3717C95.5932 25.3717 93.8889 27.2397 93.8889 30.3037C93.8889 33.3852 95.5845 35.2445 98.3583 35.2445ZM98.3583 33.5772C96.7323 33.5772 95.8193 32.3813 95.8193 30.3037C95.8193 28.2436 96.7323 27.039 98.3583 27.039C99.9757 27.039 100.897 28.2436 100.897 30.3037C100.897 32.3726 99.9757 33.5772 98.3583 33.5772Z" fill="white"/>
<path d="M104.27 35.0612H106.139V29.4483C106.139 28.1127 107.139 27.2136 108.557 27.2136C108.887 27.2136 109.444 27.2747 109.6 27.327V25.4764C109.4 25.4241 109.044 25.3979 108.765 25.3979C107.531 25.3979 106.478 26.0787 106.209 27.0128H106.07V25.555H104.27V35.0612Z" fill="white"/>
<path d="M114.242 26.9691C115.625 26.9691 116.529 27.9381 116.572 29.4308H111.79C111.894 27.9468 112.859 26.9691 114.242 26.9691ZM116.564 32.4948C116.216 33.2368 115.442 33.6471 114.312 33.6471C112.816 33.6471 111.851 32.5908 111.79 30.9235V30.8188H118.477V30.1641C118.477 27.1786 116.885 25.3717 114.251 25.3717C111.581 25.3717 109.886 27.3009 109.886 30.3386C109.886 33.3764 111.546 35.2445 114.259 35.2445C116.425 35.2445 117.938 34.197 118.364 32.4948H116.564Z" fill="white"/>
<path d="M76.8827 31.5507C77.0269 33.885 78.9646 35.3779 81.8486 35.3779C84.9309 35.3779 86.8595 33.8126 86.8595 31.3155C86.8595 29.3521 85.76 28.2664 83.0923 27.6421L81.6593 27.2893C79.965 26.8912 79.28 26.3573 79.28 25.4254C79.28 24.2492 80.3435 23.4802 81.9387 23.4802C83.4528 23.4802 84.4983 24.2311 84.6875 25.4345H86.6522C86.5351 23.2359 84.6064 21.6888 81.9658 21.6888C79.1268 21.6888 77.2342 23.2359 77.2342 25.5612C77.2342 27.4793 78.3067 28.6193 80.6589 29.1712L82.3353 29.5783C84.0566 29.9855 84.8137 30.5826 84.8137 31.5779C84.8137 32.736 83.6241 33.5774 82.0018 33.5774C80.2624 33.5774 79.0547 32.7902 78.8835 31.5507H76.8827Z" fill="white"/>
<path d="M57.5166 25.3979C56.2297 25.3979 55.1166 26.0438 54.5427 27.1263H54.4036V25.555H52.6037V38.2212H54.4732V33.6209H54.621C55.1166 34.6247 56.1862 35.2183 57.534 35.2183C59.9252 35.2183 61.4469 33.3241 61.4469 30.3037C61.4469 27.2834 59.9252 25.3979 57.5166 25.3979ZM56.9861 33.5336C55.421 33.5336 54.4384 32.294 54.4384 30.3125C54.4384 28.3222 55.421 27.0826 56.9948 27.0826C58.5774 27.0826 59.5252 28.296 59.5252 30.3037C59.5252 32.3202 58.5774 33.5336 56.9861 33.5336Z" fill="white"/>
<path d="M67.9886 25.3979C66.7017 25.3979 65.5886 26.0438 65.0148 27.1263H64.8756V25.555H63.0757V38.2212H64.9452V33.6209H65.093C65.5886 34.6247 66.6582 35.2183 68.006 35.2183C70.3972 35.2183 71.9189 33.3241 71.9189 30.3037C71.9189 27.2834 70.3972 25.3979 67.9886 25.3979ZM67.4581 33.5336C65.893 33.5336 64.9104 32.294 64.9104 30.3125C64.9104 28.3222 65.893 27.0826 67.4668 27.0826C69.0494 27.0826 69.9972 28.296 69.9972 30.3037C69.9972 32.3202 69.0494 33.5336 67.4581 33.5336Z" fill="white"/>
<path d="M49.2495 35.0612H51.3944L46.6989 22.0054H44.5269L39.8314 35.0612H41.9043L43.103 31.5959H48.0598L49.2495 35.0612ZM45.5093 24.3759H45.6625L47.5461 29.895H43.6167L45.5093 24.3759Z" fill="white"/>
<path d="M39.7797 12.7966V17.9572H41.6357C43.1675 17.9572 44.0546 17.0095 44.0546 15.3608C44.0546 13.7372 43.1604 12.7966 41.6357 12.7966H39.7797ZM40.5776 13.5262H41.5466C42.6118 13.5262 43.2423 14.2057 43.2423 15.3716C43.2423 16.5553 42.6225 17.2277 41.5466 17.2277H40.5776V13.5262Z" fill="white"/>
<path d="M46.7712 18.0323C47.9041 18.0323 48.5988 17.2706 48.5988 16.0081C48.5988 14.7529 47.9005 13.9875 46.7712 13.9875C45.6384 13.9875 44.9402 14.7529 44.9402 16.0081C44.9402 17.2706 45.6348 18.0323 46.7712 18.0323ZM46.7712 17.3493C46.1051 17.3493 45.731 16.8593 45.731 16.0081C45.731 15.1641 46.1051 14.6706 46.7712 14.6706C47.4338 14.6706 47.8115 15.1641 47.8115 16.0081C47.8115 16.8557 47.4338 17.3493 46.7712 17.3493Z" fill="white"/>
<path d="M54.5145 14.0626H53.7486L53.0575 17.0345H52.9969L52.1989 14.0626H51.4651L50.6671 17.0345H50.6101L49.9154 14.0626H49.1388L50.2075 17.9572H50.9948L51.7928 15.089H51.8534L52.6549 17.9572H53.4493L54.5145 14.0626Z" fill="white"/>
<path d="M55.3965 17.9572H56.1625V15.6791C56.1625 15.0711 56.5223 14.6921 57.0887 14.6921C57.6551 14.6921 57.9258 15.0032 57.9258 15.6291V17.9572H58.6918V15.4359C58.6918 14.5097 58.2144 13.9875 57.3487 13.9875C56.7645 13.9875 56.3798 14.2486 56.191 14.6813H56.134V14.0626H55.3965V17.9572Z" fill="white"/>
<path d="M59.898 17.9572H60.6639V12.5427H59.898V17.9572Z" fill="white"/>
<path d="M63.5445 18.0323C64.6773 18.0323 65.372 17.2706 65.372 16.0081C65.372 14.7529 64.6738 13.9875 63.5445 13.9875C62.4116 13.9875 61.7134 14.7529 61.7134 16.0081C61.7134 17.2706 62.4081 18.0323 63.5445 18.0323ZM63.5445 17.3493C62.8783 17.3493 62.5043 16.8593 62.5043 16.0081C62.5043 15.1641 62.8783 14.6706 63.5445 14.6706C64.2071 14.6706 64.5847 15.1641 64.5847 16.0081C64.5847 16.8557 64.2071 17.3493 63.5445 17.3493Z" fill="white"/>
<path d="M67.6541 17.3743C67.2373 17.3743 66.9345 17.1704 66.9345 16.82C66.9345 16.4766 67.1767 16.2942 67.7111 16.2585L68.6587 16.1977V16.5231C68.6587 17.0059 68.2312 17.3743 67.6541 17.3743ZM67.4581 18.0216C67.9676 18.0216 68.3915 17.7999 68.623 17.4101H68.6836V17.9572H69.421V15.2965C69.421 14.4739 68.8724 13.9875 67.8999 13.9875C67.02 13.9875 66.393 14.4167 66.3146 15.0855H67.0556C67.1411 14.8101 67.4368 14.6527 67.8642 14.6527C68.3879 14.6527 68.6587 14.8852 68.6587 15.2965V15.6326L67.6078 15.6934C66.6851 15.7506 66.165 16.1548 66.165 16.8557C66.165 17.5674 66.71 18.0216 67.4581 18.0216Z" fill="white"/>
<path d="M72.0201 18.0216C72.5545 18.0216 73.0069 17.7677 73.2385 17.3421H73.2991V17.9572H74.0329V12.5427H73.267V14.6813H73.21C72.9998 14.2522 72.5509 13.9983 72.0201 13.9983C71.0405 13.9983 70.4099 14.7779 70.4099 16.0081C70.4099 17.242 71.0334 18.0216 72.0201 18.0216ZM72.2375 14.6885C72.8787 14.6885 73.2812 15.1999 73.2812 16.0117C73.2812 16.8271 72.8823 17.3314 72.2375 17.3314C71.5891 17.3314 71.2008 16.8343 71.2008 16.0081C71.2008 15.1892 71.5927 14.6885 72.2375 14.6885Z" fill="white"/>
<path d="M78.9996 18.0323C80.1325 18.0323 80.8271 17.2706 80.8271 16.0081C80.8271 14.7529 80.1289 13.9875 78.9996 13.9875C77.8668 13.9875 77.1685 14.7529 77.1685 16.0081C77.1685 17.2706 77.8632 18.0323 78.9996 18.0323ZM78.9996 17.3493C78.3334 17.3493 77.9594 16.8593 77.9594 16.0081C77.9594 15.1641 78.3334 14.6706 78.9996 14.6706C79.6622 14.6706 80.0398 15.1641 80.0398 16.0081C80.0398 16.8557 79.6622 17.3493 78.9996 17.3493Z" fill="white"/>
<path d="M81.841 17.9572H82.6069V15.6791C82.6069 15.0711 82.9667 14.6921 83.5331 14.6921C84.0996 14.6921 84.3703 15.0032 84.3703 15.6291V17.9572H85.1362V15.4359C85.1362 14.5097 84.6589 13.9875 83.7932 13.9875C83.209 13.9875 82.8242 14.2486 82.6354 14.6813H82.5784V14.0626H81.841V17.9572Z" fill="white"/>
<path d="M88.6637 13.0934V14.0805H88.0474V14.7278H88.6637V16.9273C88.6637 17.6783 89.0021 17.9787 89.8536 17.9787C90.0032 17.9787 90.1457 17.9608 90.2704 17.9393V17.2992C90.1635 17.3099 90.0958 17.3171 89.9782 17.3171C89.5971 17.3171 89.4296 17.1383 89.4296 16.7306V14.7278H90.2704V14.0805H89.4296V13.0934H88.6637Z" fill="white"/>
<path d="M91.2985 17.9572H92.0644V15.6827C92.0644 15.0926 92.4135 14.6956 93.0405 14.6956C93.582 14.6956 93.8705 15.0103 93.8705 15.6326V17.9572H94.6364V15.4431C94.6364 14.5168 94.127 13.9911 93.3005 13.9911C92.7163 13.9911 92.3066 14.2522 92.1178 14.6885H92.0573V12.5427H91.2985V17.9572Z" fill="white"/>
<path d="M97.3994 14.642C97.9659 14.642 98.3364 15.039 98.3542 15.6505H96.3948C96.4376 15.0425 96.833 14.642 97.3994 14.642ZM98.3506 16.9058C98.2081 17.2098 97.8911 17.3779 97.4279 17.3779C96.8152 17.3779 96.4198 16.9451 96.3948 16.2621V16.2191H99.1343V15.9509C99.1343 14.7278 98.4824 13.9875 97.403 13.9875C96.3093 13.9875 95.6147 14.7779 95.6147 16.0224C95.6147 17.267 96.2951 18.0323 97.4066 18.0323C98.2936 18.0323 98.9135 17.6032 99.088 16.9058H98.3506Z" fill="white"/>
</svg>
