<svg width="130" height="48" viewBox="0 0 130 48" fill="none" xmlns="http://www.w3.org/2000/svg">
<rect y="0.0588379" width="129.306" height="47.0587" rx="8" fill="white"/>
<path d="M29.6392 24.3016C29.6647 22.3134 30.7283 20.4321 32.4156 19.3907C31.3512 17.8646 29.5683 16.8969 27.7134 16.8387C25.735 16.6302 23.817 18.0272 22.8088 18.0272C21.7811 18.0272 20.2289 16.8594 18.5574 16.8939C16.3787 16.9646 14.3476 18.2081 13.2876 20.1203C11.009 24.0807 12.7086 29.9011 14.8913 33.1024C15.9833 34.67 17.2596 36.421 18.9296 36.3589C20.5638 36.2909 21.1741 35.3128 23.1467 35.3128C25.101 35.3128 25.6736 36.3589 27.3775 36.3194C29.1311 36.2909 30.2359 34.7449 31.2896 33.1625C32.0742 32.0455 32.678 30.811 33.0786 29.5048C31.0178 28.6298 29.6416 26.5478 29.6392 24.3016Z" fill="#1A1A1A"/>
<path d="M26.4209 14.7334C27.377 13.5811 27.848 12.1001 27.734 10.6048C26.2732 10.7588 24.9239 11.4597 23.9549 12.5677C23.0073 13.6503 22.5142 15.1053 22.6074 16.5434C24.0687 16.5585 25.5052 15.8767 26.4209 14.7334Z" fill="#1A1A1A"/>
<path d="M87.9255 22.2482V24.6575H86.4212V26.2375H87.9255V31.606C87.9255 33.4392 88.7515 34.1724 90.8297 34.1724C91.1949 34.1724 91.5427 34.1288 91.8471 34.0764V32.5139C91.5862 32.5401 91.421 32.5575 91.1341 32.5575C90.2037 32.5575 89.795 32.1211 89.795 31.1259V26.2375H91.8471V24.6575H89.795V22.2482H87.9255Z" fill="#1A1A1A"/>
<path d="M97.1412 34.3034C99.9063 34.3034 101.602 32.444 101.602 29.3626C101.602 26.2986 99.8976 24.4305 97.1412 24.4305C94.376 24.4305 92.6717 26.2986 92.6717 29.3626C92.6717 32.444 94.3673 34.3034 97.1412 34.3034ZM97.1412 32.6361C95.5151 32.6361 94.6021 31.4402 94.6021 29.3626C94.6021 27.3025 95.5151 26.0978 97.1412 26.0978C98.7585 26.0978 99.6802 27.3025 99.6802 29.3626C99.6802 31.4314 98.7585 32.6361 97.1412 32.6361Z" fill="#1A1A1A"/>
<path d="M103.053 34.1201H104.922V28.5071C104.922 27.1715 105.922 26.2724 107.339 26.2724C107.67 26.2724 108.226 26.3335 108.383 26.3859V24.5353C108.183 24.4829 107.826 24.4567 107.548 24.4567C106.313 24.4567 105.261 25.1376 104.992 26.0717H104.853V24.6139H103.053V34.1201Z" fill="#1A1A1A"/>
<path d="M113.025 26.028C114.407 26.028 115.312 26.997 115.355 28.4897H110.573C110.677 27.0057 111.642 26.028 113.025 26.028ZM115.346 31.5537C114.999 32.2956 114.225 32.7059 113.094 32.7059C111.599 32.7059 110.634 31.6497 110.573 29.9824V29.8776H117.259V29.2229C117.259 26.2375 115.668 24.4305 113.034 24.4305C110.364 24.4305 108.668 26.3597 108.668 29.3975C108.668 32.4353 110.329 34.3034 113.042 34.3034C115.207 34.3034 116.72 33.2559 117.146 31.5537H115.346Z" fill="#1A1A1A"/>
<path d="M75.6655 30.6096C75.8097 32.9439 77.7474 34.4367 80.6314 34.4367C83.7137 34.4367 85.6424 32.8715 85.6424 30.3743C85.6424 28.411 84.5428 27.3253 81.8751 26.701L80.4422 26.3481C78.7478 25.95 78.0629 25.4162 78.0629 24.4843C78.0629 23.3081 79.1263 22.5391 80.7215 22.5391C82.2356 22.5391 83.2811 23.29 83.4704 24.4934H85.4351C85.3179 22.2948 83.3892 20.7476 80.7486 20.7476C77.9097 20.7476 76.017 22.2948 76.017 24.62C76.017 26.5381 77.0895 27.6781 79.4418 28.23L81.1181 28.6372C82.8395 29.0443 83.5965 29.6415 83.5965 30.6367C83.5965 31.7948 82.4069 32.6363 80.7846 32.6363C79.0452 32.6363 77.8376 31.8491 77.6663 30.6096H75.6655Z" fill="#1A1A1A"/>
<path d="M56.2994 24.4567C55.0125 24.4567 53.8995 25.1027 53.3256 26.1851H53.1865V24.6139H51.3865V37.2801H53.256V32.6797H53.4038C53.8995 33.6836 54.969 34.2772 56.3168 34.2772C58.708 34.2772 60.2297 32.3829 60.2297 29.3626C60.2297 26.3423 58.708 24.4567 56.2994 24.4567ZM55.769 32.5924C54.2038 32.5924 53.2212 31.3529 53.2212 29.3713C53.2212 27.381 54.2038 26.1415 55.7777 26.1415C57.3602 26.1415 58.308 27.3549 58.308 29.3626C58.308 31.3791 57.3602 32.5924 55.769 32.5924Z" fill="#1A1A1A"/>
<path d="M66.7714 24.4567C65.4845 24.4567 64.3715 25.1027 63.7976 26.1851H63.6585V24.6139H61.8585V37.2801H63.728V32.6797H63.8758C64.3715 33.6836 65.441 34.2772 66.7888 34.2772C69.18 34.2772 70.7017 32.3829 70.7017 29.3626C70.7017 26.3423 69.18 24.4567 66.7714 24.4567ZM66.241 32.5924C64.6758 32.5924 63.6932 31.3529 63.6932 29.3713C63.6932 27.381 64.6758 26.1415 66.2497 26.1415C67.8322 26.1415 68.78 27.3549 68.78 29.3626C68.78 31.3791 67.8322 32.5924 66.241 32.5924Z" fill="#1A1A1A"/>
<path d="M48.0323 34.1201H50.1773L45.4818 21.0643H43.3098L38.6143 34.1201H40.6871L41.8858 30.6548H46.8427L48.0323 34.1201ZM44.2921 23.4348H44.4453L46.3289 28.9539H42.3995L44.2921 23.4348Z" fill="#1A1A1A"/>
<path d="M38.5625 11.8555V17.0161H40.4185C41.9503 17.0161 42.8374 16.0684 42.8374 14.4197C42.8374 12.7961 41.9432 11.8555 40.4185 11.8555H38.5625ZM39.3605 12.585H40.3295C41.3946 12.585 42.0252 13.2645 42.0252 14.4304C42.0252 15.6142 41.4053 16.2865 40.3295 16.2865H39.3605V12.585Z" fill="#1A1A1A"/>
<path d="M45.5541 17.0912C46.6869 17.0912 47.3816 16.3294 47.3816 15.067C47.3816 13.8117 46.6834 13.0464 45.5541 13.0464C44.4212 13.0464 43.723 13.8117 43.723 15.067C43.723 16.3294 44.4177 17.0912 45.5541 17.0912ZM45.5541 16.4081C44.8879 16.4081 44.5139 15.9182 44.5139 15.067C44.5139 14.223 44.8879 13.7295 45.5541 13.7295C46.2167 13.7295 46.5943 14.223 46.5943 15.067C46.5943 15.9146 46.2167 16.4081 45.5541 16.4081Z" fill="#1A1A1A"/>
<path d="M53.2973 13.1215H52.5314L51.8403 16.0934H51.7797L50.9818 13.1215H50.2479L49.4499 16.0934H49.3929L48.6983 13.1215H47.9217L48.9904 17.0161H49.7777L50.5756 14.1479H50.6362L51.4377 17.0161H52.2322L53.2973 13.1215Z" fill="#1A1A1A"/>
<path d="M54.1794 17.0161H54.9453V14.738C54.9453 14.13 55.3051 13.7509 55.8715 13.7509C56.4379 13.7509 56.7087 14.0621 56.7087 14.6879V17.0161H57.4746V14.4948C57.4746 13.5685 56.9972 13.0464 56.1316 13.0464C55.5473 13.0464 55.1626 13.3075 54.9738 13.7402H54.9168V13.1215H54.1794V17.0161Z" fill="#1A1A1A"/>
<path d="M58.6808 17.0161H59.4467V11.6016H58.6808V17.0161Z" fill="#1A1A1A"/>
<path d="M62.3273 17.0912C63.4602 17.0912 64.1548 16.3294 64.1548 15.067C64.1548 13.8117 63.4566 13.0464 62.3273 13.0464C61.1945 13.0464 60.4962 13.8117 60.4962 15.067C60.4962 16.3294 61.1909 17.0912 62.3273 17.0912ZM62.3273 16.4081C61.6611 16.4081 61.2871 15.9182 61.2871 15.067C61.2871 14.223 61.6611 13.7295 62.3273 13.7295C62.9899 13.7295 63.3675 14.223 63.3675 15.067C63.3675 15.9146 62.9899 16.4081 62.3273 16.4081Z" fill="#1A1A1A"/>
<path d="M66.4369 16.4332C66.0201 16.4332 65.7173 16.2293 65.7173 15.8788C65.7173 15.5355 65.9595 15.3531 66.4939 15.3173L67.4415 15.2566V15.582C67.4415 16.0648 67.014 16.4332 66.4369 16.4332ZM66.241 17.0805C66.7504 17.0805 67.1743 16.8587 67.4059 16.4689H67.4664V17.0161H68.2039V14.3553C68.2039 13.5328 67.6552 13.0464 66.6827 13.0464C65.8028 13.0464 65.1758 13.4755 65.0974 14.1443H65.8384C65.9239 13.8689 66.2196 13.7116 66.6471 13.7116C67.1708 13.7116 67.4415 13.944 67.4415 14.3553V14.6915L66.3906 14.7523C65.4679 14.8095 64.9478 15.2136 64.9478 15.9146C64.9478 16.6263 65.4929 17.0805 66.241 17.0805Z" fill="#1A1A1A"/>
<path d="M70.803 17.0805C71.3373 17.0805 71.7898 16.8266 72.0213 16.401H72.0819V17.0161H72.8157V11.6016H72.0498V13.7402H71.9928C71.7826 13.311 71.3338 13.0571 70.803 13.0571C69.8233 13.0571 69.1928 13.8368 69.1928 15.067C69.1928 16.3008 69.8162 17.0805 70.803 17.0805ZM71.0203 13.7473C71.6615 13.7473 72.0641 14.2588 72.0641 15.0706C72.0641 15.886 71.6651 16.3902 71.0203 16.3902C70.3719 16.3902 69.9836 15.8931 69.9836 15.067C69.9836 14.248 70.3755 13.7473 71.0203 13.7473Z" fill="#1A1A1A"/>
<path d="M77.7825 17.0912C78.9153 17.0912 79.61 16.3294 79.61 15.067C79.61 13.8117 78.9117 13.0464 77.7825 13.0464C76.6496 13.0464 75.9514 13.8117 75.9514 15.067C75.9514 16.3294 76.646 17.0912 77.7825 17.0912ZM77.7825 16.4081C77.1163 16.4081 76.7422 15.9182 76.7422 15.067C76.7422 14.223 77.1163 13.7295 77.7825 13.7295C78.4451 13.7295 78.8227 14.223 78.8227 15.067C78.8227 15.9146 78.4451 16.4081 77.7825 16.4081Z" fill="#1A1A1A"/>
<path d="M80.6238 17.0161H81.3897V14.738C81.3897 14.13 81.7495 13.7509 82.316 13.7509C82.8824 13.7509 83.1531 14.0621 83.1531 14.6879V17.0161H83.9191V14.4948C83.9191 13.5685 83.4417 13.0464 82.576 13.0464C81.9918 13.0464 81.6071 13.3075 81.4182 13.7402H81.3612V13.1215H80.6238V17.0161Z" fill="#1A1A1A"/>
<path d="M87.4465 12.1523V13.1394H86.8302V13.7867H87.4465V15.9861C87.4465 16.7371 87.785 17.0376 88.6364 17.0376C88.786 17.0376 88.9285 17.0197 89.0532 16.9982V16.3581C88.9463 16.3688 88.8786 16.3759 88.7611 16.3759C88.3799 16.3759 88.2125 16.1971 88.2125 15.7894V13.7867H89.0532V13.1394H88.2125V12.1523H87.4465Z" fill="#1A1A1A"/>
<path d="M90.0813 17.0161H90.8472V14.7416C90.8472 14.1515 91.1963 13.7545 91.8233 13.7545C92.3648 13.7545 92.6534 14.0692 92.6534 14.6915V17.0161H93.4193V14.502C93.4193 13.5757 92.9099 13.05 92.0834 13.05C91.4991 13.05 91.0895 13.311 90.9007 13.7473H90.8401V11.6016H90.0813V17.0161Z" fill="#1A1A1A"/>
<path d="M96.1823 13.7009C96.7487 13.7009 97.1192 14.0978 97.137 14.7094H95.1777C95.2204 14.1014 95.6159 13.7009 96.1823 13.7009ZM97.1334 15.9647C96.9909 16.2686 96.6739 16.4367 96.2108 16.4367C95.598 16.4367 95.2026 16.004 95.1777 15.3209V15.278H97.9172V15.0098C97.9172 13.7867 97.2652 13.0464 96.1858 13.0464C95.0922 13.0464 94.3975 13.8368 94.3975 15.0813C94.3975 16.3259 95.0779 17.0912 96.1894 17.0912C97.0764 17.0912 97.6963 16.662 97.8709 15.9647H97.1334Z" fill="#1A1A1A"/>
</svg>
