<svg width="127" height="48" viewBox="0 0 127 48" fill="none" xmlns="http://www.w3.org/2000/svg">
<rect y="0.0588379" width="126.259" height="47.0587" rx="8" fill="white"/>
<g filter="url(#filter0_ii_588_2799)">
<path d="M12.6016 11.9754C12.3287 12.2653 12.1675 12.7151 12.1675 13.2977V34.1128C12.1675 34.6963 12.3287 35.1452 12.6016 35.4351L12.6709 35.5029L24.2858 23.8427V23.7052V23.5678L12.6709 11.9067L12.6016 11.9754Z" fill="url(#paint0_linear_588_2799)"/>
<path d="M28.1566 27.7305L24.2856 23.8425V23.7051V23.5677L28.1576 19.6806L28.2448 19.7305L32.832 22.347C34.1417 23.0942 34.1417 24.3168 32.832 25.0651L28.2448 27.6815L28.1566 27.7305Z" fill="url(#paint1_linear_588_2799)"/>
<g filter="url(#filter1_i_588_2799)">
<path d="M28.2449 27.6805L24.2849 23.705L12.6016 35.4349C13.0328 35.8942 13.7463 35.9506 14.5497 35.4932L28.2449 27.6805Z" fill="url(#paint2_linear_588_2799)"/>
</g>
<path d="M28.2449 19.7297L14.5497 11.9179C13.7463 11.4596 13.0328 11.517 12.6016 11.9763L24.2858 23.7061L28.2449 19.7297Z" fill="url(#paint3_linear_588_2799)"/>
</g>
<path d="M63.2729 24.844C61.1903 24.844 59.4929 26.4273 59.4929 28.608C59.4929 30.7753 61.1903 32.3719 63.2729 32.3719C65.3564 32.3719 67.0538 30.7753 67.0538 28.608C67.0529 26.4273 65.3555 24.844 63.2729 24.844ZM63.2729 30.8904C62.1316 30.8904 61.1478 29.9496 61.1478 28.6088C61.1478 27.2539 62.1325 26.3273 63.2729 26.3273C64.4143 26.3273 65.398 27.2539 65.398 28.6088C65.398 29.9487 64.4143 30.8904 63.2729 30.8904ZM55.0258 24.844C52.9432 24.844 51.2458 26.4273 51.2458 28.608C51.2458 30.7753 52.9432 32.3719 55.0258 32.3719C57.1093 32.3719 58.8067 30.7753 58.8067 28.608C58.8067 26.4273 57.1093 24.844 55.0258 24.844ZM55.0258 30.8904C53.8845 30.8904 52.9007 29.9496 52.9007 28.6088C52.9007 27.2539 53.8854 26.3273 55.0258 26.3273C56.1672 26.3273 57.1509 27.2539 57.1509 28.6088C57.1518 29.9487 56.1672 30.8904 55.0258 30.8904ZM45.2168 25.9998V27.5964H49.0402C48.9259 28.4947 48.6266 29.1505 48.1698 29.6062C47.6137 30.162 46.7433 30.7753 45.2168 30.7753C42.8632 30.7753 41.0233 28.8788 41.0233 26.5264C41.0233 24.1741 42.8632 22.2775 45.2168 22.2775C46.4865 22.2775 47.4136 22.7767 48.098 23.4183L49.2252 22.2917C48.2689 21.3792 47.0001 20.681 45.2168 20.681C41.9928 20.681 39.2825 23.3041 39.2825 26.5264C39.2825 29.7487 41.9928 32.3719 45.2168 32.3719C46.9567 32.3719 48.2698 31.801 49.2961 30.732C50.3515 29.677 50.68 28.1938 50.68 26.9964C50.68 26.6264 50.6517 26.2839 50.5941 25.999L45.2168 25.9998ZM85.3349 27.2397C85.0214 26.399 84.0651 24.844 82.1109 24.844C80.1709 24.844 78.5585 26.3698 78.5585 28.608C78.5585 30.7178 80.1567 32.3719 82.296 32.3719C84.0217 32.3719 85.0205 31.317 85.4349 30.7036L84.151 29.8478C83.7233 30.4753 83.1381 30.8886 82.296 30.8886C81.4548 30.8886 80.8554 30.5036 80.4702 29.7478L85.5057 27.6663L85.3349 27.2397ZM80.1992 28.4947C80.1567 27.0397 81.3264 26.299 82.1685 26.299C82.8246 26.299 83.3807 26.6273 83.5666 27.0973L80.1992 28.4947ZM76.1058 32.1444H77.7598V21.081H76.1058V32.1444ZM73.3945 25.6857H73.3379C72.9669 25.2432 72.2532 24.844 71.3553 24.844C69.472 24.844 67.7462 26.4981 67.7462 28.623C67.7462 30.7328 69.472 32.3728 71.3553 32.3728C72.2541 32.3728 72.9669 31.9736 73.3379 31.5178H73.3945V32.0595C73.3945 33.4994 72.6242 34.2693 71.3837 34.2693C70.3707 34.2693 69.7429 33.5427 69.4861 32.9294L68.0455 33.5286C68.459 34.526 69.557 35.7526 71.3837 35.7526C73.3237 35.7526 74.9644 34.6118 74.9644 31.8311V25.0732H73.3954L73.3945 25.6857ZM71.4979 30.8904C70.3565 30.8904 69.4011 29.9346 69.4011 28.623C69.4011 27.2964 70.3565 26.3273 71.4979 26.3273C72.6242 26.3273 73.5088 27.2964 73.5088 28.623C73.5088 29.9346 72.6242 30.8904 71.4979 30.8904ZM93.0861 21.081H89.1272V32.1444H90.7786V27.9531H93.0852C94.9163 27.9531 96.7173 26.6282 96.7173 24.5175C96.7173 22.4067 94.9172 21.081 93.0861 21.081ZM93.1286 26.4131H90.7786V22.6209H93.1286C94.3638 22.6209 95.0651 23.6431 95.0651 24.5175C95.0651 25.3741 94.3638 26.4131 93.1286 26.4131ZM103.34 24.8246C102.143 24.8246 100.905 25.3511 100.392 26.5185L101.858 27.13C102.172 26.5185 102.756 26.3184 103.368 26.3184C104.222 26.3184 105.091 26.8309 105.105 27.7415V27.8557C104.806 27.6849 104.165 27.4291 103.382 27.4291C101.802 27.4291 100.192 28.2973 100.192 29.9195C100.192 31.4001 101.488 32.3533 102.94 32.3533C104.051 32.3533 104.663 31.855 105.048 31.2709H105.104V32.125H106.7V27.8831C106.701 25.9202 105.233 24.8246 103.34 24.8246ZM103.14 30.8877C102.599 30.8877 101.844 30.6169 101.844 29.9479C101.844 29.0938 102.784 28.7664 103.596 28.7664C104.322 28.7664 104.664 28.923 105.105 29.1363C104.977 30.162 104.094 30.8877 103.14 30.8877ZM112.51 25.0662L110.616 29.8629H110.56L108.594 25.0662H106.814L109.762 31.7701L108.081 35.4995H109.804L114.348 25.0662H112.51ZM97.6294 32.1444H99.2807V21.081H97.6294V32.1444Z" fill="#1A1A1A"/>
<path d="M45.0106 14.537C45.0106 15.2652 44.7912 15.8448 44.3516 16.2775C43.8526 16.7919 43.2015 17.0492 42.4018 17.0492C41.6357 17.0492 40.9837 16.7885 40.4484 16.2671C39.9123 15.7448 39.6443 15.0983 39.6443 14.3267C39.6443 13.5542 39.9123 12.9076 40.4484 12.3863C40.9837 11.864 41.6357 11.6033 42.4018 11.6033C42.7822 11.6033 43.1458 11.6763 43.4908 11.8214C43.8367 11.9674 44.1136 12.1612 44.3206 12.4036L43.8544 12.8625C43.5032 12.4497 43.0193 12.2438 42.4009 12.2438C41.8418 12.2438 41.3588 12.4367 40.9509 12.8225C40.5431 13.2083 40.3396 13.7097 40.3396 14.3258C40.3396 14.9419 40.5431 15.4433 40.9509 15.8291C41.3588 16.2149 41.8418 16.4079 42.4009 16.4079C42.9936 16.4079 43.4881 16.2141 43.8836 15.8256C44.1401 15.5728 44.2887 15.2208 44.3286 14.7698H42.4009V14.1433H44.9726C44.9991 14.2797 45.0106 14.411 45.0106 14.537Z" fill="#1A1A1A"/>
<path d="M49.089 12.3594H46.6721V14.0122H48.8519V14.6387H46.6721V16.2915H49.089V16.9328H45.99V11.7189H49.089V12.3594Z" fill="#1A1A1A"/>
<path d="M51.9649 16.9328H51.2829V12.3594H49.8002V11.7189H53.4476V12.3594H51.9649V16.9328Z" fill="#1A1A1A"/>
<path d="M56.0865 16.9328V11.7189H56.7686V16.9328H56.0865Z" fill="#1A1A1A"/>
<path d="M59.7934 16.9328H59.1113V12.3594H57.6286V11.7189H61.2761V12.3594H59.7934V16.9328Z" fill="#1A1A1A"/>
<path d="M68.1806 16.2593C67.6587 16.7859 67.0102 17.0492 66.2344 17.0492C65.4585 17.0492 64.8101 16.7859 64.289 16.2593C63.7671 15.7327 63.507 15.0879 63.507 14.3258C63.507 13.5638 63.7671 12.919 64.289 12.3924C64.8101 11.8658 65.4585 11.6016 66.2344 11.6016C67.0058 11.6016 67.6534 11.8667 68.1771 12.3959C68.7008 12.9251 68.9627 13.5681 68.9627 14.3258C68.9627 15.0879 68.7017 15.7327 68.1806 16.2593ZM64.7924 15.8222C65.1852 16.2132 65.6656 16.4079 66.2344 16.4079C66.8032 16.4079 67.2845 16.2124 67.6764 15.8222C68.0692 15.4312 68.2665 14.9324 68.2665 14.3258C68.2665 13.7193 68.0692 13.2205 67.6764 12.8295C67.2845 12.4384 66.8032 12.2438 66.2344 12.2438C65.6656 12.2438 65.1852 12.4393 64.7924 12.8295C64.4005 13.2205 64.2032 13.7193 64.2032 14.3258C64.2032 14.9324 64.4005 15.4312 64.7924 15.8222Z" fill="#1A1A1A"/>
<path d="M69.9199 16.9328V11.7189H70.7497L73.3294 15.7744H73.3586L73.3294 14.7699V11.7189H74.0115V16.9328H73.2993L70.6002 12.68H70.571L70.6002 13.6846V16.9328H69.9199Z" fill="#1A1A1A"/>
<path d="M45.0106 14.537C45.0106 15.2652 44.7912 15.8448 44.3516 16.2775C43.8526 16.7919 43.2015 17.0492 42.4018 17.0492C41.6357 17.0492 40.9837 16.7885 40.4484 16.2671C39.9123 15.7448 39.6443 15.0983 39.6443 14.3267C39.6443 13.5542 39.9123 12.9076 40.4484 12.3863C40.9837 11.864 41.6357 11.6033 42.4018 11.6033C42.7822 11.6033 43.1458 11.6763 43.4908 11.8214C43.8367 11.9674 44.1136 12.1612 44.3206 12.4036L43.8544 12.8625C43.5032 12.4497 43.0193 12.2438 42.4009 12.2438C41.8418 12.2438 41.3588 12.4367 40.9509 12.8225C40.5431 13.2083 40.3396 13.7097 40.3396 14.3258C40.3396 14.9419 40.5431 15.4433 40.9509 15.8291C41.3588 16.2149 41.8418 16.4079 42.4009 16.4079C42.9936 16.4079 43.4881 16.2141 43.8836 15.8256C44.1401 15.5728 44.2887 15.2208 44.3286 14.7698H42.4009V14.1433H44.9726C44.9991 14.2797 45.0106 14.411 45.0106 14.537Z" stroke="#1A1A1A" stroke-width="0.204511" stroke-miterlimit="10"/>
<path d="M49.089 12.3594H46.6721V14.0122H48.8519V14.6387H46.6721V16.2915H49.089V16.9328H45.99V11.7189H49.089V12.3594Z" stroke="#1A1A1A" stroke-width="0.204511" stroke-miterlimit="10"/>
<path d="M51.9649 16.9328H51.2829V12.3594H49.8002V11.7189H53.4476V12.3594H51.9649V16.9328Z" stroke="#1A1A1A" stroke-width="0.204511" stroke-miterlimit="10"/>
<path d="M56.0865 16.9328V11.7189H56.7686V16.9328H56.0865Z" stroke="#1A1A1A" stroke-width="0.204511" stroke-miterlimit="10"/>
<path d="M59.7934 16.9328H59.1113V12.3594H57.6286V11.7189H61.2761V12.3594H59.7934V16.9328Z" stroke="#1A1A1A" stroke-width="0.204511" stroke-miterlimit="10"/>
<path d="M68.1806 16.2593C67.6587 16.7859 67.0102 17.0492 66.2344 17.0492C65.4585 17.0492 64.8101 16.7859 64.289 16.2593C63.7671 15.7327 63.507 15.0879 63.507 14.3258C63.507 13.5638 63.7671 12.919 64.289 12.3924C64.8101 11.8658 65.4585 11.6016 66.2344 11.6016C67.0058 11.6016 67.6534 11.8667 68.1771 12.3959C68.7008 12.9251 68.9627 13.5681 68.9627 14.3258C68.9627 15.0879 68.7017 15.7327 68.1806 16.2593ZM64.7924 15.8222C65.1852 16.2132 65.6656 16.4079 66.2344 16.4079C66.8032 16.4079 67.2845 16.2124 67.6764 15.8222C68.0692 15.4312 68.2665 14.9324 68.2665 14.3258C68.2665 13.7193 68.0692 13.2205 67.6764 12.8295C67.2845 12.4384 66.8032 12.2438 66.2344 12.2438C65.6656 12.2438 65.1852 12.4393 64.7924 12.8295C64.4005 13.2205 64.2032 13.7193 64.2032 14.3258C64.2032 14.9324 64.4005 15.4312 64.7924 15.8222Z" stroke="#1A1A1A" stroke-width="0.204511" stroke-miterlimit="10"/>
<path d="M69.9199 16.9328V11.7189H70.7497L73.3294 15.7744H73.3586L73.3294 14.7699V11.7189H74.0115V16.9328H73.2993L70.6002 12.68H70.571L70.6002 13.6846V16.9328H69.9199Z" stroke="#1A1A1A" stroke-width="0.204511" stroke-miterlimit="10"/>
<defs>
<filter id="filter0_ii_588_2799" x="12.1675" y="11.6016" width="21.6467" height="24.2075" filterUnits="userSpaceOnUse" color-interpolation-filters="sRGB">
<feFlood flood-opacity="0" result="BackgroundImageFix"/>
<feBlend mode="normal" in="SourceGraphic" in2="BackgroundImageFix" result="shape"/>
<feColorMatrix in="SourceAlpha" type="matrix" values="0 0 0 0 0 0 0 0 0 0 0 0 0 0 0 0 0 0 127 0" result="hardAlpha"/>
<feOffset dy="-0.795"/>
<feComposite in2="hardAlpha" operator="arithmetic" k2="-1" k3="1"/>
<feColorMatrix type="matrix" values="0 0 0 0 0 0 0 0 0 0 0 0 0 0 0 0 0 0 0.12 0"/>
<feBlend mode="normal" in2="shape" result="effect1_innerShadow_588_2799"/>
<feColorMatrix in="SourceAlpha" type="matrix" values="0 0 0 0 0 0 0 0 0 0 0 0 0 0 0 0 0 0 127 0" result="hardAlpha"/>
<feOffset dy="0.795"/>
<feComposite in2="hardAlpha" operator="arithmetic" k2="-1" k3="1"/>
<feColorMatrix type="matrix" values="0 0 0 0 1 0 0 0 0 1 0 0 0 0 1 0 0 0 0.25 0"/>
<feBlend mode="normal" in2="effect1_innerShadow_588_2799" result="effect2_innerShadow_588_2799"/>
</filter>
<filter id="filter1_i_588_2799" x="12.6016" y="23.705" width="15.6433" height="12.1041" filterUnits="userSpaceOnUse" color-interpolation-filters="sRGB">
<feFlood flood-opacity="0" result="BackgroundImageFix"/>
<feBlend mode="normal" in="SourceGraphic" in2="BackgroundImageFix" result="shape"/>
<feColorMatrix in="SourceAlpha" type="matrix" values="0 0 0 0 0 0 0 0 0 0 0 0 0 0 0 0 0 0 127 0" result="hardAlpha"/>
<feOffset dy="-0.795"/>
<feComposite in2="hardAlpha" operator="arithmetic" k2="-1" k3="1"/>
<feColorMatrix type="matrix" values="0 0 0 0 0 0 0 0 0 0 0 0 0 0 0 0 0 0 0.08 0"/>
<feBlend mode="normal" in2="shape" result="effect1_innerShadow_588_2799"/>
</filter>
<linearGradient id="paint0_linear_588_2799" x1="23.2562" y1="13.0775" x2="7.46155" y2="28.8108" gradientUnits="userSpaceOnUse">
<stop stop-color="#00A0FF"/>
<stop offset="0.0066" stop-color="#00A1FF"/>
<stop offset="0.2601" stop-color="#00BEFF"/>
<stop offset="0.5122" stop-color="#00D2FF"/>
<stop offset="0.7604" stop-color="#00DFFF"/>
<stop offset="1" stop-color="#00E3FF"/>
</linearGradient>
<linearGradient id="paint1_linear_588_2799" x1="34.5369" y1="23.7051" x2="11.8529" y2="23.7051" gradientUnits="userSpaceOnUse">
<stop stop-color="#FFE000"/>
<stop offset="0.4087" stop-color="#FFBD00"/>
<stop offset="0.7754" stop-color="#FFA500"/>
<stop offset="1" stop-color="#FF9C00"/>
</linearGradient>
<linearGradient id="paint2_linear_588_2799" x1="26.0944" y1="25.864" x2="4.67482" y2="47.2003" gradientUnits="userSpaceOnUse">
<stop stop-color="#FF3A44"/>
<stop offset="1" stop-color="#C31162"/>
</linearGradient>
<linearGradient id="paint3_linear_588_2799" x1="9.65908" y1="5.04717" x2="19.2235" y2="14.5744" gradientUnits="userSpaceOnUse">
<stop stop-color="#32A071"/>
<stop offset="0.0685" stop-color="#2DA771"/>
<stop offset="0.4762" stop-color="#15CF74"/>
<stop offset="0.8009" stop-color="#06E775"/>
<stop offset="1" stop-color="#00F076"/>
</linearGradient>
</defs>
</svg>
