<svg width="129" height="50" viewBox="0 0 129 50" fill="none" xmlns="http://www.w3.org/2000/svg">
<rect x="1.02344" y="0.5" width="127.259" height="48.0587" rx="8.5" stroke="white"/>
<g filter="url(#filter0_ii_925_5090)">
<path d="M14.125 12.9165C13.8522 13.2064 13.691 13.6563 13.691 14.2389V35.0539C13.691 35.6374 13.8522 36.0864 14.125 36.3762L14.1944 36.444L25.8093 24.7838V24.6464V24.509L14.1944 12.8478L14.125 12.9165Z" fill="url(#paint0_linear_925_5090)"/>
<path d="M29.6801 28.6716L25.8091 24.7836V24.6462V24.5088L29.681 20.6217L29.7682 20.6716L34.3555 23.2881C35.6652 24.0354 35.6652 25.258 34.3555 26.0062L29.7682 28.6227L29.6801 28.6716Z" fill="url(#paint1_linear_925_5090)"/>
<g filter="url(#filter1_i_925_5090)">
<path d="M29.7684 28.6217L25.8083 24.6461L14.125 36.376C14.5563 36.8353 15.2697 36.8918 16.0732 36.4344L29.7684 28.6217Z" fill="url(#paint2_linear_925_5090)"/>
</g>
<path d="M29.7684 20.6708L16.0732 12.8591C15.2697 12.4007 14.5563 12.4582 14.125 12.9174L25.8093 24.6473L29.7684 20.6708Z" fill="url(#paint3_linear_925_5090)"/>
</g>
<path d="M64.7963 25.7851C62.7137 25.7851 61.0163 27.3684 61.0163 29.5491C61.0163 31.7164 62.7137 33.313 64.7963 33.313C66.8798 33.313 68.5772 31.7164 68.5772 29.5491C68.5763 27.3684 66.8789 25.7851 64.7963 25.7851ZM64.7963 31.8315C63.655 31.8315 62.6712 30.8907 62.6712 29.5499C62.6712 28.195 63.6558 27.2684 64.7963 27.2684C65.9376 27.2684 66.9214 28.195 66.9214 29.5499C66.9214 30.8898 65.9376 31.8315 64.7963 31.8315ZM56.5492 25.7851C54.4666 25.7851 52.7692 27.3684 52.7692 29.5491C52.7692 31.7164 54.4666 33.313 56.5492 33.313C58.6327 33.313 60.3301 31.7164 60.3301 29.5491C60.3301 27.3684 58.6327 25.7851 56.5492 25.7851ZM56.5492 31.8315C55.4078 31.8315 54.4241 30.8907 54.4241 29.5499C54.4241 28.195 55.4087 27.2684 56.5492 27.2684C57.6905 27.2684 58.6743 28.195 58.6743 29.5499C58.6752 30.8898 57.6905 31.8315 56.5492 31.8315ZM46.7401 26.9409V28.5375H50.5635C50.4493 29.4358 50.15 30.0916 49.6931 30.5473C49.1371 31.1031 48.2667 31.7164 46.7401 31.7164C44.3866 31.7164 42.5466 29.8199 42.5466 27.4675C42.5466 25.1152 44.3866 23.2186 46.7401 23.2186C48.0099 23.2186 48.937 23.7178 49.6214 24.3594L50.7486 23.2328C49.7923 22.3203 48.5235 21.6221 46.7401 21.6221C43.5162 21.6221 40.8058 24.2452 40.8058 27.4675C40.8058 30.6898 43.5162 33.313 46.7401 33.313C48.4801 33.313 49.7932 32.7422 50.8194 31.6731C51.8749 30.6181 52.2034 29.1349 52.2034 27.9375C52.2034 27.5675 52.1751 27.225 52.1175 26.9401L46.7401 26.9409ZM86.8582 28.1808C86.5448 27.3401 85.5885 25.7851 83.6343 25.7851C81.6943 25.7851 80.0819 27.3109 80.0819 29.5491C80.0819 31.6589 81.6801 33.313 83.8194 33.313C85.5451 33.313 86.5439 32.2581 86.9583 31.6447L85.6744 30.7889C85.2467 31.4164 84.6614 31.8297 83.8194 31.8297C82.9782 31.8297 82.3787 31.4447 81.9936 30.6889L87.0291 28.6074L86.8582 28.1808ZM81.7226 29.4358C81.6801 27.9808 82.8498 27.2401 83.6919 27.2401C84.348 27.2401 84.904 27.5684 85.09 28.0384L81.7226 29.4358ZM77.6292 33.0855H79.2832V22.0221H77.6292V33.0855ZM74.9179 26.6268H74.8612C74.4902 26.1843 73.7766 25.7851 72.8787 25.7851C70.9953 25.7851 69.2696 27.4392 69.2696 29.5641C69.2696 31.674 70.9953 33.3139 72.8787 33.3139C73.7774 33.3139 74.4902 32.9147 74.8612 32.4589H74.9179V33.0006C74.9179 34.4405 74.1476 35.2104 72.907 35.2104C71.8941 35.2104 71.2663 34.4838 71.0095 33.8705L69.5689 34.4697C69.9824 35.4671 71.0804 36.6937 72.907 36.6937C74.8471 36.6937 76.4878 35.5529 76.4878 32.7722V26.0143H74.9188L74.9179 26.6268ZM73.0213 31.8315C71.8799 31.8315 70.9245 30.8757 70.9245 29.5641C70.9245 28.2375 71.8799 27.2684 73.0213 27.2684C74.1476 27.2684 75.0321 28.2375 75.0321 29.5641C75.0321 30.8757 74.1476 31.8315 73.0213 31.8315ZM94.6095 22.0221H90.6506V33.0855H92.302V28.8942H94.6086C96.4397 28.8942 98.2407 27.5693 98.2407 25.4586C98.2407 23.3478 96.4406 22.0221 94.6095 22.0221ZM94.652 27.3542H92.302V23.562H94.652C95.8872 23.562 96.5885 24.5842 96.5885 25.4586C96.5885 26.3152 95.8872 27.3542 94.652 27.3542ZM104.863 25.7657C103.667 25.7657 102.428 26.2922 101.915 27.4596L103.382 28.0711C103.695 27.4596 104.28 27.2595 104.891 27.2595C105.746 27.2595 106.614 27.772 106.629 28.6826V28.7968C106.329 28.626 105.688 28.3702 104.906 28.3702C103.325 28.3702 101.715 29.2384 101.715 30.8606C101.715 32.3412 103.012 33.2944 104.464 33.2944C105.574 33.2944 106.187 32.7961 106.571 32.212H106.628V33.0661H108.223V28.8242C108.224 26.8613 106.756 25.7657 104.863 25.7657ZM104.663 31.8288C104.123 31.8288 103.367 31.558 103.367 30.889C103.367 30.0349 104.308 29.7075 105.12 29.7075C105.845 29.7075 106.188 29.8641 106.629 30.0774C106.5 31.1031 105.617 31.8288 104.663 31.8288ZM114.034 26.0073L112.14 30.804H112.083L110.117 26.0073H108.338L111.285 32.7112L109.605 36.4406H111.328L115.871 26.0073H114.034ZM99.1527 33.0855H100.804V22.0221H99.1527V33.0855Z" fill="white"/>
<path d="M46.5339 15.4781C46.5339 16.2063 46.3146 16.7859 45.8749 17.2187C45.3759 17.7331 44.7248 17.9903 43.9251 17.9903C43.159 17.9903 42.507 17.7296 41.9718 17.2082C41.4357 16.686 41.1676 16.0395 41.1676 15.2678C41.1676 14.4953 41.4357 13.8488 41.9718 13.3274C42.507 12.8052 43.159 12.5445 43.9251 12.5445C44.3055 12.5445 44.6691 12.6175 45.0141 12.7626C45.36 12.9086 45.6369 13.1024 45.8439 13.3448L45.3777 13.8036C45.0265 13.3909 44.5426 13.1849 43.9242 13.1849C43.3651 13.1849 42.8821 13.3778 42.4742 13.7636C42.0664 14.1495 41.8629 14.6509 41.8629 15.267C41.8629 15.8831 42.0664 16.3845 42.4742 16.7703C42.8821 17.1561 43.3651 17.349 43.9242 17.349C44.5169 17.349 45.0114 17.1552 45.4069 16.7668C45.6634 16.5139 45.8121 16.162 45.8519 15.711H43.9242V15.0845H46.4959C46.5224 15.2209 46.5339 15.3521 46.5339 15.4781Z" fill="white"/>
<path d="M50.6123 13.3005H48.1954V14.9533H50.3752V15.5798H48.1954V17.2326H50.6123V17.8739H47.5134V12.6601H50.6123V13.3005Z" fill="white"/>
<path d="M53.4882 17.8739H52.8062V13.3005H51.3235V12.6601H54.9709V13.3005H53.4882V17.8739Z" fill="white"/>
<path d="M57.6098 17.8739V12.6601H58.2919V17.8739H57.6098Z" fill="white"/>
<path d="M61.3167 17.8739H60.6346V13.3005H59.1519V12.6601H62.7994V13.3005H61.3167V17.8739Z" fill="white"/>
<path d="M69.704 17.2005C69.182 17.7271 68.5336 17.9904 67.7577 17.9904C66.9819 17.9904 66.3334 17.7271 65.8123 17.2005C65.2904 16.6739 65.0303 16.0291 65.0303 15.267C65.0303 14.5049 65.2904 13.8601 65.8123 13.3335C66.3334 12.807 66.9819 12.5428 67.7577 12.5428C68.5291 12.5428 69.1767 12.8078 69.7004 13.337C70.2241 13.8662 70.486 14.5093 70.486 15.267C70.486 16.0291 70.225 16.6739 69.704 17.2005ZM66.3157 16.7634C66.7085 17.1544 67.1889 17.3491 67.7577 17.3491C68.3265 17.3491 68.8078 17.1535 69.1997 16.7634C69.5925 16.3723 69.7898 15.8735 69.7898 15.267C69.7898 14.6605 69.5925 14.1617 69.1997 13.7706C68.8078 13.3796 68.3265 13.185 67.7577 13.185C67.1889 13.185 66.7085 13.3805 66.3157 13.7706C65.9238 14.1617 65.7265 14.6605 65.7265 15.267C65.7265 15.8735 65.9238 16.3723 66.3157 16.7634Z" fill="white"/>
<path d="M71.4432 17.8739V12.6601H72.273L74.8527 16.7156H74.8819L74.8527 15.7111V12.6601H75.5348V17.8739H74.8226L72.1235 13.6212H72.0943L72.1235 14.6257V17.8739H71.4432Z" fill="white"/>
<path d="M46.5339 15.4781C46.5339 16.2063 46.3146 16.7859 45.8749 17.2187C45.3759 17.7331 44.7248 17.9903 43.9251 17.9903C43.159 17.9903 42.507 17.7296 41.9718 17.2082C41.4357 16.686 41.1676 16.0395 41.1676 15.2678C41.1676 14.4953 41.4357 13.8488 41.9718 13.3274C42.507 12.8052 43.159 12.5445 43.9251 12.5445C44.3055 12.5445 44.6691 12.6175 45.0141 12.7626C45.36 12.9086 45.6369 13.1024 45.8439 13.3448L45.3777 13.8036C45.0265 13.3909 44.5426 13.1849 43.9242 13.1849C43.3651 13.1849 42.8821 13.3778 42.4742 13.7636C42.0664 14.1495 41.8629 14.6509 41.8629 15.267C41.8629 15.8831 42.0664 16.3845 42.4742 16.7703C42.8821 17.1561 43.3651 17.349 43.9242 17.349C44.5169 17.349 45.0114 17.1552 45.4069 16.7668C45.6634 16.5139 45.8121 16.162 45.8519 15.711H43.9242V15.0845H46.4959C46.5224 15.2209 46.5339 15.3521 46.5339 15.4781Z" stroke="white" stroke-width="0.204511" stroke-miterlimit="10"/>
<path d="M50.6123 13.3005H48.1954V14.9533H50.3752V15.5798H48.1954V17.2326H50.6123V17.8739H47.5134V12.6601H50.6123V13.3005Z" stroke="white" stroke-width="0.204511" stroke-miterlimit="10"/>
<path d="M53.4882 17.8739H52.8062V13.3005H51.3235V12.6601H54.9709V13.3005H53.4882V17.8739Z" stroke="white" stroke-width="0.204511" stroke-miterlimit="10"/>
<path d="M57.6098 17.8739V12.6601H58.2919V17.8739H57.6098Z" stroke="white" stroke-width="0.204511" stroke-miterlimit="10"/>
<path d="M61.3167 17.8739H60.6346V13.3005H59.1519V12.6601H62.7994V13.3005H61.3167V17.8739Z" stroke="white" stroke-width="0.204511" stroke-miterlimit="10"/>
<path d="M69.704 17.2005C69.182 17.7271 68.5336 17.9904 67.7577 17.9904C66.9819 17.9904 66.3334 17.7271 65.8123 17.2005C65.2904 16.6739 65.0303 16.0291 65.0303 15.267C65.0303 14.5049 65.2904 13.8601 65.8123 13.3335C66.3334 12.807 66.9819 12.5428 67.7577 12.5428C68.5291 12.5428 69.1767 12.8078 69.7004 13.337C70.2241 13.8662 70.486 14.5093 70.486 15.267C70.486 16.0291 70.225 16.6739 69.704 17.2005ZM66.3157 16.7634C66.7085 17.1544 67.1889 17.3491 67.7577 17.3491C68.3265 17.3491 68.8078 17.1535 69.1997 16.7634C69.5925 16.3723 69.7898 15.8735 69.7898 15.267C69.7898 14.6605 69.5925 14.1617 69.1997 13.7706C68.8078 13.3796 68.3265 13.185 67.7577 13.185C67.1889 13.185 66.7085 13.3805 66.3157 13.7706C65.9238 14.1617 65.7265 14.6605 65.7265 15.267C65.7265 15.8735 65.9238 16.3723 66.3157 16.7634Z" stroke="white" stroke-width="0.204511" stroke-miterlimit="10"/>
<path d="M71.4432 17.8739V12.6601H72.273L74.8527 16.7156H74.8819L74.8527 15.7111V12.6601H75.5348V17.8739H74.8226L72.1235 13.6212H72.0943L72.1235 14.6257V17.8739H71.4432Z" stroke="white" stroke-width="0.204511" stroke-miterlimit="10"/>
<defs>
<filter id="filter0_ii_925_5090" x="13.691" y="12.5428" width="21.6468" height="24.2075" filterUnits="userSpaceOnUse" color-interpolation-filters="sRGB">
<feFlood flood-opacity="0" result="BackgroundImageFix"/>
<feBlend mode="normal" in="SourceGraphic" in2="BackgroundImageFix" result="shape"/>
<feColorMatrix in="SourceAlpha" type="matrix" values="0 0 0 0 0 0 0 0 0 0 0 0 0 0 0 0 0 0 127 0" result="hardAlpha"/>
<feOffset dy="-0.795"/>
<feComposite in2="hardAlpha" operator="arithmetic" k2="-1" k3="1"/>
<feColorMatrix type="matrix" values="0 0 0 0 0 0 0 0 0 0 0 0 0 0 0 0 0 0 0.12 0"/>
<feBlend mode="normal" in2="shape" result="effect1_innerShadow_925_5090"/>
<feColorMatrix in="SourceAlpha" type="matrix" values="0 0 0 0 0 0 0 0 0 0 0 0 0 0 0 0 0 0 127 0" result="hardAlpha"/>
<feOffset dy="0.795"/>
<feComposite in2="hardAlpha" operator="arithmetic" k2="-1" k3="1"/>
<feColorMatrix type="matrix" values="0 0 0 0 1 0 0 0 0 1 0 0 0 0 1 0 0 0 0.25 0"/>
<feBlend mode="normal" in2="effect1_innerShadow_925_5090" result="effect2_innerShadow_925_5090"/>
</filter>
<filter id="filter1_i_925_5090" x="14.125" y="24.6461" width="15.6434" height="12.1042" filterUnits="userSpaceOnUse" color-interpolation-filters="sRGB">
<feFlood flood-opacity="0" result="BackgroundImageFix"/>
<feBlend mode="normal" in="SourceGraphic" in2="BackgroundImageFix" result="shape"/>
<feColorMatrix in="SourceAlpha" type="matrix" values="0 0 0 0 0 0 0 0 0 0 0 0 0 0 0 0 0 0 127 0" result="hardAlpha"/>
<feOffset dy="-0.795"/>
<feComposite in2="hardAlpha" operator="arithmetic" k2="-1" k3="1"/>
<feColorMatrix type="matrix" values="0 0 0 0 0 0 0 0 0 0 0 0 0 0 0 0 0 0 0.08 0"/>
<feBlend mode="normal" in2="shape" result="effect1_innerShadow_925_5090"/>
</filter>
<linearGradient id="paint0_linear_925_5090" x1="24.7797" y1="14.0186" x2="8.98505" y2="29.7519" gradientUnits="userSpaceOnUse">
<stop stop-color="#00A0FF"/>
<stop offset="0.0066" stop-color="#00A1FF"/>
<stop offset="0.2601" stop-color="#00BEFF"/>
<stop offset="0.5122" stop-color="#00D2FF"/>
<stop offset="0.7604" stop-color="#00DFFF"/>
<stop offset="1" stop-color="#00E3FF"/>
</linearGradient>
<linearGradient id="paint1_linear_925_5090" x1="36.0603" y1="24.6462" x2="13.3763" y2="24.6462" gradientUnits="userSpaceOnUse">
<stop stop-color="#FFE000"/>
<stop offset="0.4087" stop-color="#FFBD00"/>
<stop offset="0.7754" stop-color="#FFA500"/>
<stop offset="1" stop-color="#FF9C00"/>
</linearGradient>
<linearGradient id="paint2_linear_925_5090" x1="27.6178" y1="26.8051" x2="6.19826" y2="48.1414" gradientUnits="userSpaceOnUse">
<stop stop-color="#FF3A44"/>
<stop offset="1" stop-color="#C31162"/>
</linearGradient>
<linearGradient id="paint3_linear_925_5090" x1="11.1825" y1="5.98833" x2="20.7469" y2="15.5156" gradientUnits="userSpaceOnUse">
<stop stop-color="#32A071"/>
<stop offset="0.0685" stop-color="#2DA771"/>
<stop offset="0.4762" stop-color="#15CF74"/>
<stop offset="0.8009" stop-color="#06E775"/>
<stop offset="1" stop-color="#00F076"/>
</linearGradient>
</defs>
</svg>
